<svg xmlns="http://www.w3.org/2000/svg" style="display:none">
  <symbol id="fbm-check" viewBox="0 0 24 24"><path fill="currentColor" d="M20 6 9 17l-5-5"/></symbol>
  <symbol id="fbm-info" viewBox="0 0 24 24"><path fill="currentColor" d="M12 2a10 10 0 1 0 0 20 10 10 0 0 0 0-20zm1 5h-2v2h2V7zm0 4h-2v6h2v-6z"/></symbol>
  <symbol id="fbm-warning" viewBox="0 0 24 24"><path fill="currentColor" d="M1 21h22L12 2 1 21zm12-3h-2v2h2v-2zm0-4h-2v4h2v-4z"/></symbol>
  <symbol id="fbm-error" viewBox="0 0 24 24"><path fill="currentColor" d="M12 2a10 10 0 1 0 0 20 10 10 0 0 0 0-20zm5 13.59L15.59 17 12 13.41 8.41 17 7 15.59 10.59 12 7 8.41 8.41 7 12 10.59 15.59 7 17 8.41 13.41 12 17 15.59z"/></symbol>
  <symbol id="fbm-chevron" viewBox="0 0 24 24"><path fill="currentColor" d="m9 18 6-6-6-6"/></symbol>
  <symbol id="fbm-close" viewBox="0 0 24 24"><path fill="currentColor" d="M18 6 6 18M6 6l12 12" stroke-width="2" stroke="currentColor" fill="none" stroke-linecap="round"/></symbol>
</svg>
